mtllib Dodecahedron.mtl
o empty_2
usemtl material10
v 5.773502349853516 5.773502349853516 5.773502349853516
v 3.568221092224121 9.341723442077637 0
v -5.773502349853516 5.773502349853516 5.773502349853516
v -5.773502349853516 5.773502349853516 5.773502349853516
v 0 3.568221092224121 9.341723442077637
v 5.773502349853516 5.773502349853516 5.773502349853516
v 3.568221092224121 9.341723442077637 0
v -3.568221092224121 9.341723442077637 0
v -5.773502349853516 5.773502349853516 5.773502349853516
v 5.773502349853516 5.773502349853516 5.773502349853516
v 9.341723442077637 0 3.568221092224121
v 5.773502349853516 5.773502349853516 -5.773502349853516
v 5.773502349853516 5.773502349853516 -5.773502349853516
v 3.568221092224121 9.341723442077637 0
v 5.773502349853516 5.773502349853516 5.773502349853516
v 9.341723442077637 0 3.568221092224121
v 9.341723442077637 0 -3.568221092224121
v 5.773502349853516 5.773502349853516 -5.773502349853516
v 5.773502349853516 5.773502349853516 5.773502349853516
v 0 3.568221092224121 9.341723442077637
v 5.773502349853516 -5.773502349853516 5.773502349853516
v 5.773502349853516 -5.773502349853516 5.773502349853516
v 9.341723442077637 0 3.568221092224121
v 5.773502349853516 5.773502349853516 5.773502349853516
v 0 3.568221092224121 9.341723442077637
v 0 -3.568221092224121 9.341723442077637
v 5.773502349853516 -5.773502349853516 5.773502349853516
v 3.568221092224121 9.341723442077637 0
v 5.773502349853516 5.773502349853516 -5.773502349853516
v -5.773502349853516 5.773502349853516 -5.773502349853516
v -5.773502349853516 5.773502349853516 -5.773502349853516
v -3.568221092224121 9.341723442077637 0
v 3.568221092224121 9.341723442077637 0
v 5.773502349853516 5.773502349853516 -5.773502349853516
v 0 3.568221092224121 -9.341723442077637
v -5.773502349853516 5.773502349853516 -5.773502349853516
v 9.341723442077637 0 3.568221092224121
v 5.773502349853516 -5.773502349853516 5.773502349853516
v 5.773502349853516 -5.773502349853516 -5.773502349853516
v 5.773502349853516 -5.773502349853516 -5.773502349853516
v 9.341723442077637 0 -3.568221092224121
v 9.341723442077637 0 3.568221092224121
v 5.773502349853516 -5.773502349853516 5.773502349853516
v 3.568221092224121 -9.341723442077637 0
v 5.773502349853516 -5.773502349853516 -5.773502349853516
v 0 3.568221092224121 9.341723442077637
v -5.773502349853516 5.773502349853516 5.773502349853516
v -5.773502349853516 -5.773502349853516 5.773502349853516
v -5.773502349853516 -5.773502349853516 5.773502349853516
v 0 -3.568221092224121 9.341723442077637
v 0 3.568221092224121 9.341723442077637
v -5.773502349853516 5.773502349853516 5.773502349853516
v -9.341723442077637 0 3.568221092224121
v -5.773502349853516 -5.773502349853516 5.773502349853516
v -3.568221092224121 9.341723442077637 0
v -5.773502349853516 5.773502349853516 -5.773502349853516
v -9.341723442077637 0 3.568221092224121
v -9.341723442077637 0 3.568221092224121
v -5.773502349853516 5.773502349853516 5.773502349853516
v -3.568221092224121 9.341723442077637 0
v -5.773502349853516 5.773502349853516 -5.773502349853516
v -9.341723442077637 0 -3.568221092224121
v -9.341723442077637 0 3.568221092224121
v -5.773502349853516 -5.773502349853516 5.773502349853516
v -3.568221092224121 -9.341723442077637 0
v 5.773502349853516 -5.773502349853516 5.773502349853516
v 5.773502349853516 -5.773502349853516 5.773502349853516
v 0 -3.568221092224121 9.341723442077637
v -5.773502349853516 -5.773502349853516 5.773502349853516
v -3.568221092224121 -9.341723442077637 0
v 3.568221092224121 -9.341723442077637 0
v 5.773502349853516 -5.773502349853516 5.773502349853516
v 5.773502349853516 -5.773502349853516 -5.773502349853516
v 0 -3.568221092224121 -9.341723442077637
v 5.773502349853516 5.773502349853516 -5.773502349853516
v 5.773502349853516 5.773502349853516 -5.773502349853516
v 9.341723442077637 0 -3.568221092224121
v 5.773502349853516 -5.773502349853516 -5.773502349853516
v 0 -3.568221092224121 -9.341723442077637
v 0 3.568221092224121 -9.341723442077637
v 5.773502349853516 5.773502349853516 -5.773502349853516
v -5.773502349853516 -5.773502349853516 -5.773502349853516
v -9.341723442077637 0 -3.568221092224121
v 0 3.568221092224121 -9.341723442077637
v 0 3.568221092224121 -9.341723442077637
v 0 -3.568221092224121 -9.341723442077637
v -5.773502349853516 -5.773502349853516 -5.773502349853516
v -9.341723442077637 0 -3.568221092224121
v -5.773502349853516 5.773502349853516 -5.773502349853516
v 0 3.568221092224121 -9.341723442077637
v -5.773502349853516 -5.773502349853516 -5.773502349853516
v -3.568221092224121 -9.341723442077637 0
v -9.341723442077637 0 3.568221092224121
v -9.341723442077637 0 3.568221092224121
v -9.341723442077637 0 -3.568221092224121
v -5.773502349853516 -5.773502349853516 -5.773502349853516
v -3.568221092224121 -9.341723442077637 0
v -5.773502349853516 -5.773502349853516 5.773502349853516
v -9.341723442077637 0 3.568221092224121
v -5.773502349853516 -5.773502349853516 -5.773502349853516
v 0 -3.568221092224121 -9.341723442077637
v 3.568221092224121 -9.341723442077637 0
v 3.568221092224121 -9.341723442077637 0
v -3.568221092224121 -9.341723442077637 0
v -5.773502349853516 -5.773502349853516 -5.773502349853516
v 0 -3.568221092224121 -9.341723442077637
v 5.773502349853516 -5.773502349853516 -5.773502349853516
v 3.568221092224121 -9.341723442077637 0
vn 0 0.8506507441157871 0.52573121605556
vn 0 0.8506507441157871 0.52573121605556
vn 0 0.8506507441157871 0.52573121605556
vn 0 0.8506509432930751 0.5257308937798897
vn 0 0.8506509432930751 0.5257308937798897
vn 0 0.8506509432930751 0.5257308937798897
vn 0 0.8506507009854466 0.5257312858418911
vn 0 0.8506507009854466 0.5257312858418911
vn 0 0.8506507009854466 0.5257312858418911
vn 0.8506507441157871 0.52573121605556 0
vn 0.8506507441157871 0.52573121605556 0
vn 0.8506507441157871 0.52573121605556 0
vn 0.8506509432930751 0.5257308937798897 0
vn 0.8506509432930751 0.5257308937798897 0
vn 0.8506509432930751 0.5257308937798897 0
vn 0.8506507009854466 0.5257312858418911 0
vn 0.8506507009854466 0.5257312858418911 0
vn 0.8506507009854466 0.5257312858418911 0
vn 0.52573121605556 0 0.8506507441157871
vn 0.52573121605556 0 0.8506507441157871
vn 0.52573121605556 0 0.8506507441157871
vn 0.5257308937798897 0 0.8506509432930751
vn 0.5257308937798897 0 0.8506509432930751
vn 0.5257308937798897 0 0.8506509432930751
vn 0.5257312858418911 0 0.8506507009854466
vn 0.5257312858418911 0 0.8506507009854466
vn 0.5257312858418911 0 0.8506507009854466
vn 0 0.8506507441157871 -0.52573121605556
vn 0 0.8506507441157871 -0.52573121605556
vn 0 0.8506507441157871 -0.52573121605556
vn 0 0.8506506743294323 -0.525731328972206
vn 0 0.8506506743294323 -0.525731328972206
vn 0 0.8506506743294323 -0.525731328972206
vn 0 0.8506509432930751 -0.5257308937798897
vn 0 0.8506509432930751 -0.5257308937798897
vn 0 0.8506509432930751 -0.5257308937798897
vn 0.8506507441157871 -0.52573121605556 0
vn 0.8506507441157871 -0.52573121605556 0
vn 0.8506507441157871 -0.52573121605556 0
vn 0.8506506743294323 -0.525731328972206 0
vn 0.8506506743294323 -0.525731328972206 0
vn 0.8506506743294323 -0.525731328972206 0
vn 0.8506509432930751 -0.5257308937798897 0
vn 0.8506509432930751 -0.5257308937798897 0
vn 0.8506509432930751 -0.5257308937798897 0
vn -0.52573121605556 0 0.8506507441157871
vn -0.52573121605556 0 0.8506507441157871
vn -0.52573121605556 0 0.8506507441157871
vn -0.525731328972206 0 0.8506506743294323
vn -0.525731328972206 0 0.8506506743294323
vn -0.525731328972206 0 0.8506506743294323
vn -0.5257308937798897 0 0.8506509432930751
vn -0.5257308937798897 0 0.8506509432930751
vn -0.5257308937798897 0 0.8506509432930751
vn -0.8506508836884541 0.5257309902222301 -7.301194986330787e-8
vn -0.8506508836884541 0.5257309902222301 -7.301194986330787e-8
vn -0.8506508836884541 0.5257309902222301 -7.301194986330787e-8
vn -0.8506507974278059 0.5257311297949092 7.875720987673915e-8
vn -0.8506507974278059 0.5257311297949092 7.875720987673915e-8
vn -0.8506507974278059 0.5257311297949092 7.875720987673915e-8
vn -0.8506506743294323 0.525731328972206 0
vn -0.8506506743294323 0.525731328972206 0
vn -0.8506506743294323 0.525731328972206 0
vn 0 -0.8506507441157871 0.52573121605556
vn 0 -0.8506507441157871 0.52573121605556
vn 0 -0.8506507441157871 0.52573121605556
vn 0 -0.8506509432930751 0.5257308937798897
vn 0 -0.8506509432930751 0.5257308937798897
vn 0 -0.8506509432930751 0.5257308937798897
vn 0 -0.8506507009854466 0.5257312858418911
vn 0 -0.8506507009854466 0.5257312858418911
vn 0 -0.8506507009854466 0.5257312858418911
vn 0.52573121605556 0 -0.8506507441157871
vn 0.52573121605556 0 -0.8506507441157871
vn 0.52573121605556 0 -0.8506507441157871
vn 0.5257308937798897 0 -0.8506509432930751
vn 0.5257308937798897 0 -0.8506509432930751
vn 0.5257308937798897 0 -0.8506509432930751
vn 0.5257312858418911 0 -0.8506507009854466
vn 0.5257312858418911 0 -0.8506507009854466
vn 0.5257312858418911 0 -0.8506507009854466
vn -0.5257310333525628 -9.73492658023485e-8 -0.8506508570324474
vn -0.5257310333525628 -9.73492658023485e-8 -0.8506508570324474
vn -0.5257310333525628 -9.73492658023485e-8 -0.8506508570324474
vn -0.5257312858418911 0 -0.8506507009854466
vn -0.5257312858418911 0 -0.8506507009854466
vn -0.5257312858418911 0 -0.8506507009854466
vn -0.525731103138898 1.1813581948344006e-7 -0.8506508139021225
vn -0.525731103138898 1.1813581948344006e-7 -0.8506508139021225
vn -0.525731103138898 1.1813581948344006e-7 -0.8506508139021225
vn -0.8506508570324474 -0.5257310333525628 -9.73492658023485e-8
vn -0.8506508570324474 -0.5257310333525628 -9.73492658023485e-8
vn -0.8506508570324474 -0.5257310333525628 -9.73492658023485e-8
vn -0.8506507009854466 -0.5257312858418911 0
vn -0.8506507009854466 -0.5257312858418911 0
vn -0.8506507009854466 -0.5257312858418911 0
vn -0.8506508139021225 -0.525731103138898 1.1813581948344006e-7
vn -0.8506508139021225 -0.525731103138898 1.1813581948344006e-7
vn -0.8506508139021225 -0.525731103138898 1.1813581948344006e-7
vn -9.73492658023485e-8 -0.8506508570324474 -0.5257310333525628
vn -9.73492658023485e-8 -0.8506508570324474 -0.5257310333525628
vn -9.73492658023485e-8 -0.8506508570324474 -0.5257310333525628
vn 0 -0.8506507009854466 -0.5257312858418911
vn 0 -0.8506507009854466 -0.5257312858418911
vn 0 -0.8506507009854466 -0.5257312858418911
vn 1.1813581948344006e-7 -0.8506508139021225 -0.525731103138898
vn 1.1813581948344006e-7 -0.8506508139021225 -0.525731103138898
vn 1.1813581948344006e-7 -0.8506508139021225 -0.525731103138898
f 1//1 2//2 3//3
f 4//4 5//5 6//6
f 7//7 8//8 9//9
f 10//10 11//11 12//12
f 13//13 14//14 15//15
f 16//16 17//17 18//18
f 19//19 20//20 21//21
f 22//22 23//23 24//24
f 25//25 26//26 27//27
f 28//28 29//29 30//30
f 31//31 32//32 33//33
f 34//34 35//35 36//36
f 37//37 38//38 39//39
f 40//40 41//41 42//42
f 43//43 44//44 45//45
f 46//46 47//47 48//48
f 49//49 50//50 51//51
f 52//52 53//53 54//54
f 55//55 56//56 57//57
f 58//58 59//59 60//60
f 61//61 62//62 63//63
f 64//64 65//65 66//66
f 67//67 68//68 69//69
f 70//70 71//71 72//72
f 73//73 74//74 75//75
f 76//76 77//77 78//78
f 79//79 80//80 81//81
f 82//82 83//83 84//84
f 85//85 86//86 87//87
f 88//88 89//89 90//90
f 91//91 92//92 93//93
f 94//94 95//95 96//96
f 97//97 98//98 99//99
f 100//100 101//101 102//102
f 103//103 104//104 105//105
f 106//106 107//107 108//108
