# Blender 5.1.2
# www.blender.org
o Plane
v -1.000000 0.000000 4.000000
v 1.000000 0.000000 4.000000
v -1.000000 0.000000 -1.000000
v 1.000000 0.000000 -1.000000
v -1.000000 0.000000 6.000000
v 1.000000 0.000000 6.000000
v -9.000000 0.000000 4.000000
v -9.000000 0.000000 6.000000
v -11.000000 0.000000 4.000000
v -11.000000 0.000000 6.000000
v -9.000000 0.000000 -1.000000
v -11.000000 0.000000 -1.000000
v -1.000000 6.000000 -1.000000
v -1.000000 6.000000 4.000000
v 1.000000 6.000000 4.000000
v 1.000000 6.000000 -1.000000
v 1.000000 6.000000 4.000000
v -1.000000 6.000000 6.000000
v 1.000000 6.000000 6.000000
v -1.000000 6.000000 4.000000
v -1.000000 6.000000 6.000000
v -9.000000 6.000000 4.000000
v -9.000000 6.000000 6.000000
v -9.000000 6.000000 6.000000
v -11.000000 6.000000 4.000000
v -11.000000 6.000000 6.000000
v -9.000000 6.000000 4.000000
v -11.000000 6.000000 4.000000
v -9.000000 6.000000 -1.000000
v -11.000000 6.000000 -1.000000
v -1.000000 8.000000 4.000000
v -9.000000 8.000000 4.000000
v -1.000000 6.000000 -1.000000
v -9.000000 6.000000 -1.000000
v -1.000000 8.000000 -1.000000
v -9.000000 8.000000 -1.000000
vn 1.0000 -0.0000 -0.0000
vn -0.0000 -0.0000 -1.0000
vn -1.0000 -0.0000 -0.0000
vn -0.0000 -0.0000 1.0000
vn -0.0000 1.0000 -0.0000
vn -0.0000 -1.0000 -0.0000
vn -0.0000 0.7071 0.7071
vn -0.7071 0.7071 -0.0000
vn 0.7071 0.7071 -0.0000
vt 0.000000 0.000000
s 0
f 2/1/1 4/1/1 16/1/1 15/1/1
f 6/1/1 2/1/1 17/1/1 19/1/1
f 1/1/2 7/1/2 22/1/2 20/1/2
f 12/1/3 9/1/3 28/1/3 30/1/3
f 3/1/3 1/1/3 14/1/3 13/1/3
f 4/1/2 3/1/2 13/1/2 16/1/2
f 5/1/4 6/1/4 19/1/4 18/1/4
f 8/1/4 5/1/4 21/1/4 23/1/4
f 9/1/3 10/1/3 26/1/3 25/1/3
f 10/1/4 8/1/4 24/1/4 26/1/4
f 7/1/1 11/1/1 29/1/1 27/1/1
f 11/1/2 12/1/2 30/1/2 29/1/2
f 33/1/2 34/1/2 36/1/2 35/1/2
f 32/1/5 31/1/5 35/1/5 36/1/5
f 20/1/6 22/1/6 34/1/6 33/1/6
f 26/1/7 19/1/7 31/1/7 32/1/7
f 32/1/8 36/1/8 30/1/8 26/1/8
f 36/1/2 34/1/2 30/1/2
f 31/1/9 19/1/9 16/1/9 35/1/9
f 35/1/2 16/1/2 33/1/2
f 4/1/6 6/1/6 5/1/6 3/1/6
f 10/1/6 12/1/6 11/1/6 8/1/6
f 8/1/6 7/1/6 1/1/6 5/1/6
